<?xml version="1.0" standalone="no"?>
<!DOCTYPE svg PUBLIC "-//W3C//DTD SVG 20010904//EN"
 "http://www.w3.org/TR/2001/REC-SVG-20010904/DTD/svg10.dtd">
<svg version="1.0" xmlns="http://www.w3.org/2000/svg"
 width="475.000000pt" height="439.000000pt" viewBox="0 0 475.000000 439.000000"
 preserveAspectRatio="xMidYMid meet">

<g transform="translate(0.000000,439.000000) scale(0.100000,-0.100000)"
fill="#000000" stroke="none">
<path d="M2945 4320 c-3 -5 -1 -10 4 -10 6 0 11 5 11 10 0 6 -2 10 -4 10 -3 0
-8 -4 -11 -10z"/>
<path d="M2490 4299 c-19 -10 -44 -17 -54 -14 -11 2 -31 -2 -45 -9 -14 -8 -46
-20 -71 -27 -25 -8 -65 -28 -90 -46 -25 -17 -74 -51 -110 -76 -87 -59 -166
-136 -174 -171 -4 -15 -10 -26 -13 -22 -4 3 -19 -17 -35 -45 -16 -28 -27 -54
-23 -57 3 -4 10 0 15 8 6 8 10 10 10 4 0 -7 -9 -22 -20 -35 -18 -23 -19 -23
-21 -4 -1 11 -5 4 -8 -15 -4 -22 -12 -34 -20 -32 -9 2 -12 -4 -8 -17 3 -12 0
-19 -6 -18 -7 1 -18 -35 -28 -88 -20 -107 -31 -154 -58 -259 -31 -117 -26
-203 19 -322 14 -37 -2 -47 -48 -33 -33 9 -44 9 -56 0 -30 -25 -32 -143 -3
-174 7 -6 23 -37 36 -67 60 -138 62 -140 87 -140 14 0 30 -10 39 -24 9 -13 29
-29 45 -36 17 -7 30 -16 30 -21 0 -14 -38 -11 -42 3 -3 9 -6 9 -11 1 -4 -7 5
-17 22 -24 24 -11 30 -20 35 -58 13 -104 25 -272 26 -356 1 -143 1 -147 -10
-140 -5 3 -10 0 -10 -7 0 -20 -67 -148 -74 -141 -3 4 -6 1 -6 -5 0 -6 5 -14
10 -17 6 -4 8 -14 6 -23 -3 -10 -1 -24 4 -31 7 -12 11 -10 21 12 16 35 32 23
25 -17 -5 -25 1 -46 24 -90 17 -31 30 -62 28 -69 -6 -37 35 -117 61 -117 6 0
11 -4 11 -10 0 -5 -5 -10 -11 -10 -7 0 0 -11 14 -24 18 -16 25 -31 21 -43 -5
-15 -4 -16 5 -3 9 13 15 8 13 -12 -2 -8 84 -48 103 -48 9 0 13 5 10 10 -3 6 1
13 10 16 20 8 61 -31 42 -40 -7 -3 -2 -4 9 -3 12 1 30 -5 40 -14 20 -17 167
-69 197 -69 13 0 16 6 12 23 -8 36 9 83 29 79 30 -5 83 -61 90 -93 5 -29 6
-29 79 -29 70 0 123 18 105 36 -4 4 -4 12 1 18 5 6 12 37 16 69 l8 59 -44 -4
-44 -3 1 57 c1 51 5 60 32 83 28 24 60 80 118 212 13 29 30 48 54 59 49 24
170 145 170 171 0 31 -28 37 -42 9 -6 -14 -22 -28 -37 -32 -43 -11 -270 -4
-328 11 -30 8 -60 12 -67 9 -8 -3 -21 5 -30 17 -13 19 -18 20 -31 9 -12 -10
-18 -10 -30 0 -8 7 -15 19 -15 27 0 10 -6 13 -17 8 -15 -5 -16 -4 -5 6 6 7 12
28 12 45 0 18 5 36 11 40 18 11 87 8 102 -5 8 -6 54 -14 104 -17 98 -7 146 6
171 47 17 27 6 79 -16 79 -9 0 -57 5 -107 11 -102 12 -99 12 -140 4 -16 -3
-47 -6 -67 -6 -45 0 -52 -8 -38 -45 7 -18 7 -31 1 -37 -7 -7 -12 -5 -17 6 -3
9 -12 17 -19 17 -16 0 -20 6 -28 40 -8 33 35 69 59 49 11 -9 18 -9 26 -1 9 9
9 12 0 12 -7 0 -12 5 -12 11 0 8 4 8 14 0 16 -13 240 -25 232 -12 -3 4 -26 14
-52 21 -30 9 -41 16 -32 21 11 6 213 11 333 9 48 -1 66 10 63 38 -2 23 -8 27
-33 28 -16 0 -41 6 -55 14 -19 11 -75 14 -231 15 -152 0 -210 4 -222 13 -11 9
-17 10 -22 2 -4 -6 -13 -9 -20 -6 -7 2 -23 -4 -36 -15 -12 -10 -28 -19 -34
-19 -18 0 -45 -45 -45 -74 0 -39 -20 -42 -47 -7 -13 17 -30 31 -36 31 -22 0
-140 123 -151 156 -3 11 -19 34 -36 52 -16 18 -30 37 -30 41 0 4 -9 16 -20 26
-11 10 -20 24 -20 30 0 7 -7 16 -16 19 -8 3 -13 10 -10 15 4 5 -1 16 -9 24
-17 17 -20 31 -5 22 11 -7 2 23 -13 43 -8 10 -7 16 2 21 9 6 10 14 3 27 -19
37 -19 186 1 206 7 7 17 22 22 33 8 19 8 19 13 1 2 -10 -2 -23 -10 -27 -11 -8
-11 -11 2 -18 8 -5 17 -8 21 -5 4 2 9 -5 12 -16 3 -13 10 -18 21 -14 9 3 16 1
16 -6 0 -6 5 -8 10 -5 6 4 17 2 24 -4 23 -19 117 -39 211 -45 75 -4 97 -2 134
15 24 10 50 19 59 19 8 0 30 9 48 21 18 11 39 19 46 18 29 -5 70 15 79 38 36
94 -29 222 -120 238 -59 10 -154 -3 -212 -29 -30 -13 -72 -26 -93 -30 -22 -4
-61 -18 -88 -31 -34 -17 -48 -19 -48 -10 0 7 -17 22 -37 33 -25 13 -37 25 -35
36 2 10 -2 24 -8 31 -6 7 -10 33 -9 57 1 41 -16 120 -42 192 -7 19 -9 48 -5
70 7 34 10 37 33 31 16 -4 34 0 50 10 13 9 32 15 41 14 50 -5 57 -2 132 58
l28 23 6 -23 c5 -20 7 -19 27 18 14 25 17 41 10 43 -6 2 -11 15 -11 28 0 25
-23 33 -36 12 -5 -7 -11 -3 -17 13 -9 21 -11 21 -14 6 -3 -11 -11 -16 -19 -13
-7 3 -20 -2 -29 -10 -13 -14 -15 -13 -16 13 -1 17 -3 21 -6 11 -2 -10 -13 -18
-23 -18 -21 0 -35 29 -20 44 5 5 10 23 10 39 0 15 4 26 8 23 4 -2 14 -1 22 5
10 6 11 9 3 9 -7 0 -13 7 -13 16 0 8 5 12 10 9 6 -4 10 6 10 22 1 24 2 25 11
10 6 -9 8 -26 4 -36 -3 -11 -2 -22 3 -25 6 -3 12 8 14 24 3 17 1 30 -4 30 -4
0 -8 8 -8 18 1 15 2 15 12 -3 11 -19 11 -19 20 0 8 18 8 18 4 -2 -2 -12 0 -37
4 -55 l8 -33 1 30 c2 29 2 29 17 10 14 -18 14 -18 9 10 -4 17 -2 41 4 55 9 24
10 24 10 3 1 -13 6 -23 11 -23 6 0 10 -12 10 -27 0 -27 2 -26 31 17 27 39 30
42 26 18 -2 -15 0 -25 4 -22 11 7 11 1 -1 -31 -5 -14 -13 -24 -17 -22 -15 9
-40 -37 -33 -58 7 -19 7 -19 14 3 8 24 22 29 29 10 3 -7 6 -2 6 12 1 14 6 32
12 40 8 11 9 -2 4 -47 -3 -37 -2 -63 3 -63 13 0 22 25 22 58 l0 27 20 -30 c18
-28 20 -28 20 -7 0 12 5 22 10 22 6 0 10 10 9 23 0 21 -1 21 -9 2 -5 -11 -9
-15 -9 -8 -2 21 11 43 24 43 8 0 16 10 18 23 4 21 4 21 6 -3 2 -23 3 -24 11
-5 7 17 9 17 9 3 1 -10 6 -18 12 -18 5 0 8 4 5 8 -3 5 1 9 9 9 8 0 15 -6 15
-13 0 -7 5 -14 11 -16 9 -3 9 -13 0 -41 -16 -48 -32 -58 -26 -15 5 28 4 30 -4
11 -11 -24 -51 -32 -51 -11 0 28 -13 -5 -17 -44 -6 -50 -13 -63 -13 -25 0 15
-4 27 -10 27 -5 0 -10 -11 -10 -25 0 -14 -8 -29 -20 -35 -22 -12 -26 -52 -10
-94 10 -28 37 -34 71 -15 23 12 53 16 163 24 44 3 82 8 85 10 2 3 15 -2 28
-10 22 -15 27 -14 74 12 59 32 67 43 67 102 1 38 -1 41 -12 25 -12 -16 -14
-14 -18 19 -3 26 0 37 9 37 7 0 13 6 13 14 0 8 4 17 8 20 5 3 7 -9 5 -27 -2
-18 0 -27 3 -20 7 16 34 5 34 -14 0 -8 5 -11 10 -8 6 3 11 25 11 48 2 30 3 34
6 15 3 -17 11 -28 20 -28 9 0 13 -6 9 -15 -6 -17 2 -45 14 -45 9 0 21 32 30
85 6 32 7 27 5 -23 -3 -77 15 -80 30 -5 14 70 29 80 23 16 -5 -54 4 -67 30
-41 27 27 -1 170 -29 152 -9 -5 -10 -2 -5 12 5 14 -3 28 -36 57 -40 36 -36 43
5 9 30 -26 18 -1 -14 29 -35 33 -52 37 -42 12 5 -13 1 -11 -18 6 -13 12 -36
30 -51 39 -16 9 -28 20 -28 24 0 4 -5 8 -10 8 -6 0 -43 16 -83 36 -68 34 -142
54 -213 59 -17 1 -36 5 -42 9 -7 4 -17 4 -24 0 -7 -4 -8 -3 -4 4 10 17 -13 13
-54 -9z m590 -259 c0 -5 -2 -10 -4 -10 -3 0 -8 5 -11 10 -3 6 -1 10 4 10 6 0
11 -4 11 -10z m-480 -56 c0 -8 -4 -12 -10 -9 -5 3 -10 10 -10 16 0 5 5 9 10 9
6 0 10 -7 10 -16z m104 -36 c5 -33 9 -39 17 -28 8 11 9 4 5 -25 -4 -31 -3 -36
5 -22 6 11 9 30 6 44 -3 14 2 40 10 57 l14 31 -5 -42 c-4 -47 8 -59 18 -18 5
21 10 24 25 16 10 -6 20 -9 22 -6 2 2 3 -16 1 -39 -3 -29 1 -46 12 -55 14 -12
16 -11 16 5 1 17 2 17 10 2 7 -11 6 -25 -2 -44 l-13 -27 -6 24 c-7 23 -7 23
-8 2 -1 -12 -5 -25 -11 -28 -12 -7 -24 39 -16 62 4 9 -9 0 -28 -20 -33 -35
-34 -35 -41 -14 -6 19 -8 19 -12 5 -7 -28 -23 -21 -24 10 -1 20 -2 22 -6 7 -7
-28 -23 -43 -23 -21 0 9 -4 14 -10 11 -5 -3 -10 -1 -10 5 0 6 -4 9 -9 5 -5 -3
-12 5 -14 17 -3 18 -5 17 -6 -7 -1 -23 -3 -27 -11 -15 -16 25 -12 50 9 50 13
0 20 10 24 36 6 35 35 76 48 68 4 -2 9 -23 13 -46z m-234 38 c0 -2 -7 -6 -15
-10 -8 -3 -15 -1 -15 4 0 6 7 10 15 10 8 0 15 -2 15 -4z m557 -43 c-3 -10 -5
-2 -5 17 0 19 2 27 5 18 2 -10 2 -26 0 -35z m-405 6 c-4 -28 -6 -29 -20 -15
-13 12 -13 18 -2 30 19 24 27 19 22 -15z m-487 -70 c-12 -36 -24 -53 -42 -60
-13 -5 -26 -9 -27 -9 -9 0 9 99 22 125 13 25 17 27 20 12 3 -17 5 -17 20 5
l17 23 3 -23 c2 -12 -4 -45 -13 -73z m980 73 c-3 -3 -11 0 -18 7 -9 10 -8 11
6 5 10 -3 15 -9 12 -12z m-678 -39 c-3 -10 -5 -2 -5 17 0 19 2 27 5 18 2 -10
2 -26 0 -35z m428 8 c3 -5 1 -12 -5 -16 -5 -3 -10 1 -10 9 0 18 6 21 15 7z
m165 -21 c0 -5 -5 -10 -11 -10 -5 0 -7 5 -4 10 3 6 8 10 11 10 2 0 4 -4 4 -10z
m-436 -75 c-4 -8 -8 -15 -10 -15 -2 0 -4 7 -4 15 0 8 4 15 10 15 5 0 7 -7 4
-15z m-604 -81 l-8 -29 -1 32 c-1 17 -4 40 -7 50 -5 15 -4 14 9 -3 12 -16 14
-29 7 -50z m509 -715 c-8 -5 -9 -9 -4 -9 6 0 -3 -7 -19 -15 -16 -9 -34 -14
-40 -12 -6 2 -1 9 12 16 12 6 22 16 22 22 0 5 6 16 13 23 10 12 13 11 21 -1 5
-10 4 -18 -5 -24z m94 -16 c-7 -2 -19 -2 -25 0 -7 3 -2 5 12 5 14 0 19 -2 13
-5z m-830 -282 c30 -43 34 -61 13 -61 -24 0 -54 34 -61 68 -9 45 13 42 48 -7z
m68 -51 c10 -6 19 -15 19 -20 0 -17 -25 -11 -38 10 -14 22 -9 25 19 10z m118
-192 c0 -27 -2 -29 -8 -13 -5 11 -6 26 -4 33 8 21 13 13 12 -20z m1027 -107
c-4 -5 0 -11 6 -14 7 -2 11 -7 8 -9 -3 -3 -18 3 -35 13 l-30 19 28 0 c16 0 26
-4 23 -9z m-1110 -509 c-17 -16 -18 -16 -5 5 7 12 15 20 18 17 3 -2 -3 -12
-13 -22z m269 -463 c-4 -5 -12 -9 -18 -8 -9 0 -8 2 1 6 6 2 9 10 6 15 -4 7 -2
8 5 4 6 -4 9 -12 6 -17z m30 -39 c-3 -5 -11 -10 -16 -10 -6 0 -7 5 -4 10 3 6
11 10 16 10 6 0 7 -4 4 -10z"/>
<path d="M2780 3900 c-1 -14 -4 -19 -7 -12 -5 13 -23 7 -23 -9 0 -6 5 -7 10
-4 6 3 10 0 10 -7 0 -8 5 -6 11 5 6 10 8 25 6 35 -3 12 -5 9 -7 -8z"/>
<path d="M3180 3970 c12 -16 25 -30 30 -30 5 0 11 -13 15 -30 4 -16 11 -30 16
-30 18 0 9 23 -28 71 -40 53 -68 69 -33 19z"/>
<path d="M3372 3225 c0 -55 3 -111 7 -125 5 -14 6 27 4 90 -6 146 -11 165 -11
35z"/>
<path d="M3030 3251 c-67 -21 -87 -39 -109 -101 -13 -34 -21 -77 -19 -98 3
-32 7 -37 31 -40 23 -3 26 -7 21 -26 -6 -26 5 -33 69 -46 30 -6 37 -5 33 6 -3
8 4 12 22 12 45 -1 91 13 101 30 9 15 12 15 41 -6 56 -42 84 -7 55 67 -9 25
-17 54 -17 63 0 9 -9 20 -21 24 -25 7 -57 33 -57 45 0 4 10 9 22 11 21 3 21 4
4 20 -27 28 -135 51 -176 39z m129 -242 c-7 -4 -17 -5 -21 -3 -4 3 -5 -1 -3
-9 7 -17 -70 -23 -106 -8 -19 8 -13 9 28 5 45 -6 52 -4 62 14 6 11 19 28 28
38 17 17 18 17 21 -5 2 -13 -2 -27 -9 -32z"/>
<path d="M3410 2945 c-13 -15 -6 -105 8 -105 13 0 32 39 38 80 6 36 4 40 -13
40 -12 0 -26 -7 -33 -15z"/>
<path d="M2576 2694 c-14 -36 -4 -59 44 -106 28 -27 50 -53 50 -58 0 -6 5 -10
10 -10 6 0 10 -6 10 -13 0 -18 90 -38 130 -30 34 6 45 21 55 76 5 27 15 42 31
49 23 11 41 44 30 55 -3 4 -15 -4 -26 -18 -18 -19 -23 -21 -30 -9 -6 9 -21 14
-39 12 -18 -2 -55 9 -96 29 -50 24 -74 30 -100 26 -19 -3 -37 -1 -40 4 -9 14
-22 11 -29 -7z"/>
<path d="M2585 2551 c-7 -12 12 -24 25 -16 11 7 4 25 -10 25 -5 0 -11 -4 -15
-9z"/>
<path d="M2835 2270 c-3 -5 -1 -10 4 -10 6 0 11 5 11 10 0 6 -2 10 -4 10 -3 0
-8 -4 -11 -10z"/>
<path d="M3045 2130 c3 -5 8 -10 11 -10 2 0 4 5 4 10 0 6 -5 10 -11 10 -5 0
-7 -4 -4 -10z"/>
<path d="M3095 1986 c0 -13 3 -22 8 -19 4 2 7 13 7 24 0 10 -3 19 -7 19 -5 0
-8 -11 -8 -24z"/>
</g>
</svg>
